<svg xmlns="http://www.w3.org/2000/svg" viewBox="0 0 100 100" width="100" height="100">
  <defs>
    <linearGradient id="logo-grad" x1="0%" y1="0%" x2="100%" y2="100%">
      <stop offset="0%" stop-color="#10B981" />
      <stop offset="50%" stop-color="#6366F1" />
      <stop offset="100%" stop-color="#7C3AED" />
    </linearGradient>
  </defs>
  <!-- Outer glowing rings representing career pathways -->
  <circle cx="50" cy="50" r="42" fill="none" stroke="url(#logo-grad)" stroke-width="4" stroke-dasharray="8 6" opacity="0.4" />
  <circle cx="50" cy="50" r="32" fill="none" stroke="url(#logo-grad)" stroke-width="2" opacity="0.6" />
  
  <!-- Stylized overlap D & C nodes -->
  <path d="M 42 30 A 20 20 0 1 0 42 70 A 5 5 0 0 0 42 60 A 10 10 0 1 1 42 40 A 5 5 0 0 0 42 30 Z" fill="url(#logo-grad)" />
  <path d="M 48 30 C 65 30 75 40 75 50 C 75 60 65 70 48 70 L 48 60 C 58 60 65 55 65 50 C 65 45 58 40 48 40 Z" fill="url(#logo-grad)" />

  <!-- Core learning target node -->
  <circle cx="50" cy="50" r="6" fill="#10B981" />
</svg>
